<svg width="24" height="24" viewBox="0 0 24 24" fill="none" xmlns="http://www.w3.org/2000/svg">
<g clip-path="url(#clip0_1_52932)">
<path d="M15 9.99963L19.553 7.72363C19.7054 7.64747 19.8748 7.61151 20.045 7.61918C20.2152 7.62684 20.3806 7.67788 20.5256 7.76744C20.6706 7.85699 20.7902 7.98211 20.8733 8.1309C20.9563 8.2797 20.9999 8.44724 21 8.61763V15.3816C20.9999 15.552 20.9563 15.7196 20.8733 15.8684C20.7902 16.0172 20.6706 16.1423 20.5256 16.2318C20.3806 16.3214 20.2152 16.3724 20.045 16.3801C19.8748 16.3877 19.7054 16.3518 19.553 16.2756L15 13.9996V9.99963Z" stroke="#25324B" stroke-width="2" stroke-linecap="round" stroke-linejoin="round"/>
<path d="M13 6H5C3.89543 6 3 6.89543 3 8V16C3 17.1046 3.89543 18 5 18H13C14.1046 18 15 17.1046 15 16V8C15 6.89543 14.1046 6 13 6Z" stroke="#25324B" stroke-width="2" stroke-linecap="round" stroke-linejoin="round"/>
</g>
<defs>
<clipPath id="clip0_1_52932">
<rect width="24" height="24" fill="white"/>
</clipPath>
</defs>
</svg>
