<svg width="24" height="24" viewBox="0 0 24 24" fill="none" xmlns="http://www.w3.org/2000/svg">
<path fill-rule="evenodd" clip-rule="evenodd" d="M10.4829 20.1373C11.0009 20.7143 11.6659 21.0312 12.3559 21.0312H12.3569C13.0499 21.0312 13.7179 20.7142 14.2369 20.1362C14.5149 19.8293 14.9889 19.8042 15.2959 20.0812C15.6039 20.3582 15.6289 20.8333 15.3519 21.1402C14.5439 22.0372 13.4809 22.5312 12.3569 22.5312H12.3549C11.2339 22.5303 10.1729 22.0362 9.36792 21.1392C9.09092 20.8323 9.11592 20.3572 9.42392 20.0812C9.73192 19.8032 10.2059 19.8283 10.4829 20.1373ZM12.4057 1.03125C16.8507 1.03125 19.8367 4.49325 19.8367 7.72625C19.8367 9.38925 20.2597 10.0942 20.7087 10.8422C21.1527 11.5802 21.6557 12.4183 21.6557 14.0022C21.3067 18.0492 17.0817 18.3792 12.4057 18.3792C7.72972 18.3792 3.50372 18.0492 3.1587 14.0662C3.15572 12.4183 3.65872 11.5802 4.10272 10.8422L4.25946 10.5784C4.64539 9.91511 4.97472 9.1936 4.97472 7.72625C4.97472 4.49325 7.96072 1.03125 12.4057 1.03125ZM12.4057 2.53125C8.91072 2.53125 6.47472 5.26925 6.47472 7.72625C6.47472 9.80525 5.89772 10.7663 5.38772 11.6143C4.97872 12.2952 4.65572 12.8333 4.65572 14.0022C4.82272 15.8882 6.06772 16.8792 12.4057 16.8792C18.7087 16.8792 19.9927 15.8442 20.1587 13.9373C20.1557 12.8333 19.8327 12.2952 19.4237 11.6143C18.9137 10.7663 18.3367 9.80525 18.3367 7.72625C18.3367 5.26925 15.9007 2.53125 12.4057 2.53125Z" fill="#25324B"/>
<circle cx="18" cy="6" r="3.5" fill="#FF6550" stroke="white"/>
</svg>
