<svg width="25" height="24" viewBox="0 0 25 24" fill="none" xmlns="http://www.w3.org/2000/svg">
<g opacity="0.5" clip-path="url(#clip0_3541_20804)">
<path d="M16.3999 4H8.3999C6.19076 4 4.3999 5.79086 4.3999 8V16C4.3999 18.2091 6.19076 20 8.3999 20H16.3999C18.609 20 20.3999 18.2091 20.3999 16V8C20.3999 5.79086 18.609 4 16.3999 4Z" stroke="#515B6F" stroke-width="2" stroke-linecap="round" stroke-linejoin="round"/>
<path d="M12.3999 15C14.0568 15 15.3999 13.6569 15.3999 12C15.3999 10.3431 14.0568 9 12.3999 9C10.743 9 9.3999 10.3431 9.3999 12C9.3999 13.6569 10.743 15 12.3999 15Z" stroke="#515B6F" stroke-width="2" stroke-linecap="round" stroke-linejoin="round"/>
<path d="M16.8999 7.5V7.501" stroke="#515B6F" stroke-width="2" stroke-linecap="round" stroke-linejoin="round"/>
</g>
<defs>
<clipPath id="clip0_3541_20804">
<rect width="24" height="24" fill="white" transform="translate(0.399902)"/>
</clipPath>
</defs>
</svg>
