<svg width="24" height="24" viewBox="0 0 24 24" fill="none" xmlns="http://www.w3.org/2000/svg">
<path d="M21.4691 3.59945C21.1267 3.26578 20.674 3.08914 20.1963 3.10117C19.2524 3.12551 18.4845 3.92559 18.4845 4.88482V9.33423C17.8661 9.11661 17.1493 9.25458 16.6556 9.74833L12.2706 14.1333C12.1723 14.2316 12.0823 14.3359 12.0001 14.4451C11.9178 14.3359 11.8278 14.2316 11.7295 14.1333L7.34457 9.74829C6.8509 9.25458 6.13413 9.11661 5.51565 9.33419V4.85841C5.51565 4.38028 5.32706 3.93317 4.98459 3.59945C4.64221 3.26578 4.18978 3.08906 3.71181 3.10117C2.76794 3.12551 2 3.92559 2 4.88482V11.456C2 12.0554 2.16953 12.6399 2.49024 13.1462L5.72007 18.2455C6.01659 18.7137 6.17335 19.2541 6.17335 19.8083V21.4142C6.17335 21.7378 6.4357 22.0002 6.7593 22.0002H17.2409C17.5645 22.0002 17.8269 21.7378 17.8269 21.4142V19.8083C17.8269 19.2541 17.9836 18.7137 18.2801 18.2456L21.51 13.1463C21.8306 12.6399 22.0002 12.0554 22.0002 11.456V4.85841C22.0002 4.38032 21.8116 3.93321 21.4691 3.59945ZM6.71008 17.6185L3.48025 12.5191C3.27849 12.2007 3.17188 11.833 3.17188 11.456V4.88482C3.17188 4.5554 3.42763 4.28079 3.74201 4.2727C3.90162 4.26884 4.05263 4.32755 4.16674 4.43872C4.28088 4.54997 4.34377 4.69903 4.34377 4.85841V11.0108C4.34377 11.0271 4.3449 11.0431 4.34619 11.059C4.36252 11.4863 4.53311 11.9087 4.85862 12.2343L6.99586 14.3715C7.22465 14.6003 7.59567 14.6003 7.8245 14.3715C8.05333 14.1427 8.05333 13.7717 7.8245 13.5429L5.68726 11.4056C5.45882 11.1771 5.45882 10.8054 5.68726 10.577C5.91577 10.3485 6.28746 10.3485 6.51593 10.577L10.9008 14.9619C11.2318 15.2929 11.4141 15.7348 11.4141 16.2062V20.8283H7.3452V19.8083C7.3452 19.0317 7.12559 18.2745 6.71008 17.6185ZM20.8283 11.456C20.8283 11.833 20.7217 12.2007 20.5199 12.5191L17.2901 17.6185C16.8746 18.2745 16.655 19.0317 16.655 19.8083V20.8283H12.586V16.2062C12.586 15.7348 12.7683 15.2929 13.0993 14.9619L17.4843 10.5769C17.7128 10.3485 18.0845 10.3485 18.3129 10.5769C18.5402 10.7952 18.5402 11.1874 18.3127 11.4057L16.1757 13.5442C15.9469 13.7731 15.947 14.1441 16.1759 14.3729C16.4048 14.6016 16.7757 14.6015 17.0046 14.3726L19.1415 12.2343C19.4646 11.9112 19.646 11.4844 19.6555 11.029C19.6557 11.0229 19.6564 11.0169 19.6564 11.0108V4.88482C19.6564 4.5554 19.9121 4.28079 20.2265 4.2727C20.3853 4.26837 20.5371 4.32755 20.6512 4.43872C20.7654 4.55001 20.8283 4.69907 20.8283 4.85845V11.456Z" fill="#25324B" stroke="#25324B" stroke-width="0.5"/>
<path d="M7.91689 7.16526C7.94197 7.19245 8.02822 7.27745 9.66995 8.87832C10.5262 9.71329 11.496 10.659 11.5741 10.7377C11.6845 10.8525 11.8369 10.9176 11.9965 10.9176C12.1583 10.9176 12.3129 10.8507 12.4235 10.7329C12.507 10.647 13.4037 9.77419 14.1951 9.00371C15.5809 7.65472 16.0213 7.22514 16.0764 7.16534C16.089 7.15163 16.1009 7.13741 16.1121 7.12276C18.0061 4.71856 16.2811 2.01928 13.8364 2.00768C13.1729 2.01791 12.5435 2.24573 11.9906 2.67175C10.5667 1.59424 9.0001 1.94389 8.07298 2.80116C6.82231 3.94371 6.76028 5.85193 7.89974 7.14581C7.90533 7.15241 7.91103 7.15889 7.91689 7.16526ZM8.86866 3.66156C9.4653 3.10972 10.5349 2.83284 11.5852 3.86855C11.6965 3.97836 11.8478 4.03895 12.0036 4.03723C12.1599 4.03535 12.3091 3.97105 12.4178 3.85863C13.0682 3.18597 14.1926 2.8364 15.1244 3.65808C15.7332 4.19508 16.1166 5.22876 15.2044 6.38135C15.0573 6.52912 14.1294 7.43229 13.3777 8.16406C12.7143 8.80984 12.2757 9.237 11.9959 9.51032C11.5968 9.11969 9.08248 6.6701 8.78108 6.37295C8.18494 5.65126 7.95994 4.50192 8.86866 3.66156Z" fill="#25324B" stroke="#25324B" stroke-width="0.5"/>
</svg>