<svg width="24" height="24" viewBox="0 0 24 24" fill="none" xmlns="http://www.w3.org/2000/svg">
<path fill-rule="evenodd" clip-rule="evenodd" d="M7.93628 4.96377C7.01202 5.49726 6.2019 6.20756 5.55218 7.05411C4.90245 7.90067 4.42584 8.86689 4.14957 9.89762C3.5916 11.9793 3.88349 14.1973 4.96102 16.0638C6.03856 17.9302 7.81347 19.2922 9.89531 19.8501C11.9771 20.4081 14.1954 20.1162 16.062 19.0388C16.2765 18.9245 16.527 18.8981 16.7607 18.9649C16.9943 19.0318 17.1929 19.1868 17.3145 19.3972C17.4361 19.6076 17.4712 19.857 17.4125 20.0929C17.3537 20.3287 17.2057 20.5325 16.9996 20.6613C15.1088 21.7523 12.9129 22.1947 10.7471 21.9211C8.58127 21.6474 6.56449 20.6727 5.00457 19.1456C3.44465 17.6186 2.42727 15.6231 2.10773 13.4637C1.78819 11.3044 2.18403 9.09983 3.23483 7.18651C4.28564 5.27318 5.93369 3.7562 7.92744 2.8671C9.92118 1.97801 12.1511 1.76564 14.2769 2.26241C16.4026 2.75918 18.3074 3.9378 19.7006 5.61838C21.0937 7.29896 21.8986 9.38918 21.9925 11.57C21.9975 11.6094 22 11.6491 22 11.6888V13.5638C22.0004 14.3083 21.7591 15.0329 21.3122 15.6286C20.8654 16.2242 20.2372 16.6586 19.5222 16.8666C18.8072 17.0745 18.0439 17.0446 17.3473 16.7815C16.6507 16.5184 16.0584 16.0362 15.6594 15.4075C14.866 16.2599 13.7999 16.8087 12.6451 16.9591C11.4903 17.1095 10.3191 16.8522 9.33378 16.2315C8.34842 15.6108 7.61064 14.6657 7.24771 13.5592C6.88478 12.4527 6.91948 11.2542 7.34582 10.1706C7.77216 9.08692 8.5634 8.18605 9.58301 7.62339C10.6026 7.06073 11.7867 6.87158 12.9309 7.08856C14.0751 7.30554 15.1076 7.91504 15.8504 8.81192C16.5932 9.70879 16.9996 10.8368 16.9996 12.0013V13.5638C16.9996 13.9782 17.1642 14.3756 17.4572 14.6686C17.7503 14.9616 18.1478 15.1263 18.5622 15.1263C18.9766 15.1263 19.3741 14.9616 19.6672 14.6686C19.9602 14.3756 20.1248 13.9782 20.1248 13.5638V11.835C20.0961 10.4229 19.6997 9.04274 18.9747 7.83057C18.2498 6.61839 17.2214 5.6161 15.9909 4.92256C14.7605 4.22901 13.3705 3.86817 11.958 3.87561C10.5455 3.88306 9.15937 4.25854 7.93628 4.96502V4.96377ZM15.1244 12.0013C15.1244 11.1725 14.7951 10.3776 14.209 9.79155C13.6229 9.2055 12.828 8.87626 11.9991 8.87626C11.1703 8.87626 10.3753 9.2055 9.78923 9.79155C9.20313 10.3776 8.87386 11.1725 8.87386 12.0013C8.87386 12.8301 9.20313 13.6249 9.78923 14.211C10.3753 14.797 11.1703 15.1263 11.9991 15.1263C12.828 15.1263 13.6229 14.797 14.209 14.211C14.7951 13.6249 15.1244 12.8301 15.1244 12.0013Z" fill="#25324B"/>
</svg>
